<mxfile host="app.diagrams.net" modified="2023-09-20T02:51:18.310Z" agent="Mozilla/5.0 (Windows NT 10.0; Win64; x64) AppleWebKit/537.36 (KHTML, like Gecko) Chrome/117.0.0.0 Safari/537.36" etag="TzncOoNPT3jfvyu01yGC" version="21.7.5" type="device">
  <diagram name="Page-1" id="uAi9kXa_8-essm4I_uFf">
    <mxGraphModel dx="558" dy="446" grid="1" gridSize="10" guides="1" tooltips="1" connect="1" arrows="1" fold="1" page="1" pageScale="1" pageWidth="850" pageHeight="1100" math="0" shadow="0">
      <root>
        <mxCell id="0" />
        <mxCell id="1" parent="0" />
        <mxCell id="sK4anvs9dPdQDpHCwido-2" value="&lt;font style=&quot;font-size: 10px;&quot;&gt;&lt;b&gt;Transaction&lt;/b&gt;&lt;/font&gt;" style="swimlane;childLayout=stackLayout;horizontal=1;startSize=30;horizontalStack=0;rounded=1;fontSize=14;fontStyle=0;strokeWidth=2;resizeParent=0;resizeLast=1;shadow=0;dashed=0;align=center;arcSize=4;whiteSpace=wrap;html=1;" parent="1" vertex="1">
          <mxGeometry x="300" y="170" width="310" height="270" as="geometry" />
        </mxCell>
        <mxCell id="sK4anvs9dPdQDpHCwido-3" value="&lt;font style=&quot;font-size: 10px;&quot;&gt;transactionId : String&lt;br&gt;items : String[]&lt;br&gt;quantities : Int []&lt;br&gt;prices : double[]&lt;br&gt;itemCount : Int&lt;/font&gt;" style="align=left;strokeColor=none;fillColor=none;spacingLeft=4;fontSize=12;verticalAlign=top;resizable=0;rotatable=0;part=1;html=1;" parent="sK4anvs9dPdQDpHCwido-2" vertex="1">
          <mxGeometry y="30" width="310" height="70" as="geometry" />
        </mxCell>
        <mxCell id="sK4anvs9dPdQDpHCwido-20" value="" style="line;strokeWidth=2;rotatable=0;dashed=0;labelPosition=right;align=left;verticalAlign=middle;spacingTop=0;spacingLeft=6;points=[];portConstraint=eastwest;" parent="sK4anvs9dPdQDpHCwido-2" vertex="1">
          <mxGeometry y="100" width="310" height="20" as="geometry" />
        </mxCell>
        <mxCell id="sK4anvs9dPdQDpHCwido-5" value="&lt;font style=&quot;font-size: 10px;&quot;&gt;createTransaction(String transaction): void&lt;br&gt;addItem(String itemName, int quantitiry, double price): void&lt;br&gt;updateItemName(String oldItemName, String newItemName); void&lt;br&gt;updateItemQuantity(String itemName, int newQuantity): void&lt;br&gt;updateItemPrice(String itemName, double newprice): void&lt;br&gt;deleteItem(String itemName): void&lt;br&gt;resetTransaction(): void&lt;br&gt;printReceipt(): void&lt;br&gt;&lt;/font&gt;" style="align=left;strokeColor=none;fillColor=none;spacingLeft=4;fontSize=12;verticalAlign=top;resizable=0;rotatable=0;part=1;html=1;" parent="sK4anvs9dPdQDpHCwido-2" vertex="1">
          <mxGeometry y="120" width="310" height="150" as="geometry" />
        </mxCell>
      </root>
    </mxGraphModel>
  </diagram>
</mxfile>
